<?xml version="1.0" encoding="UTF-8" standalone="no"?>
<svg
   data-name="Layer 1"
   width="926.62165"
   height="600.08495"
   viewBox="0 0 926.62165 600.08495"
   version="1.1"
   id="svg1038"
   sodipodi:docname="landing.svg"
   inkscape:version="1.2.2 (732a01da63, 2022-12-09)"
   xmlns:inkscape="http://www.inkscape.org/namespaces/inkscape"
   xmlns:sodipodi="http://sodipodi.sourceforge.net/DTD/sodipodi-0.dtd"
   xmlns="http://www.w3.org/2000/svg"
   xmlns:svg="http://www.w3.org/2000/svg">
  <defs
     id="defs1042" />
  <sodipodi:namedview
     id="namedview1040"
     pagecolor="#ffffff"
     bordercolor="#000000"
     borderopacity="0.25"
     inkscape:showpageshadow="2"
     inkscape:pageopacity="0.0"
     inkscape:pagecheckerboard="0"
     inkscape:deskcolor="#d1d1d1"
     showgrid="false"
     inkscape:zoom="0.91321695"
     inkscape:cx="194.91535"
     inkscape:cy="376.14282"
     inkscape:window-width="1920"
     inkscape:window-height="991"
     inkscape:window-x="-9"
     inkscape:window-y="-9"
     inkscape:window-maximized="1"
     inkscape:current-layer="svg1038" />
  <path
     d="M 905.05168,603.18248 H 24.772778 A 22.690656,22.762567 0 0 1 2.1077827,580.44565 V 35.927866 A 16.623538,16.676222 0 0 1 18.712145,19.270206 H 910.82492 a 16.910985,16.964579 0 0 1 16.89176,16.945633 V 580.44565 a 22.690642,22.762554 0 0 1 -22.665,22.73683 z"
     fill="#f2f2f2"
     id="path998"
     style="stroke-width:1.37581" />
  <path
     d="M 876.59019,574.47575 H 56.193262 c -12.026184,0 -21.810003,-9.19109 -21.810003,-20.48817 V 79.814511 c 0,-8.378286 7.250051,-15.194882 16.161694,-15.194882 H 881.97071 c 9.05943,0 16.42964,6.928971 16.42964,15.445181 v 473.92277 c 2e-5,11.29708 -9.78412,20.48817 -21.81016,20.48817 z"
     fill="#ffffff"
     id="path1000"
     style="stroke-width:1.37581" />
  <path
     d="M 927.40111,38.761219 H 1.7897034 V 27.185571 A 22.766315,22.838466 0 0 1 24.537117,4.3801205 H 904.65358 a 22.766205,22.838356 0 0 1 22.74749,22.8054505 z"
     fill="#3f3d56"
     id="path1002"
     style="stroke-width:1.37581;fill:#4d4d4d" />
  <ellipse
     cx="43.129768"
     cy="21.604984"
     fill="#ffffff"
     id="circle1004"
     rx="5.8838606"
     ry="5.9025078"
     style="stroke-width:1.37581;fill:#ff0000" />
  <ellipse
     cx="65.46347"
     cy="21.604984"
     fill="#ffffff"
     id="circle1006"
     rx="5.8838606"
     ry="5.9025078"
     style="stroke-width:1.37581;fill:#008000" />
  <ellipse
     cx="87.797134"
     cy="21.604984"
     fill="#ffffff"
     id="circle1008"
     rx="5.8838606"
     ry="5.9025078"
     style="stroke-width:1.37581;fill:#d45500" />
  <path
     d="M 446.92872,168.29812 H 286.47685 a 9.0194891,9.048074 0 0 1 0,-18.09614 h 160.45187 a 9.0194891,9.048074 0 1 1 0,18.09614 z"
     fill="#cccccc"
     id="path1010"
     style="stroke-width:1.37581;fill:#280b0b" />
  <path
     d="M 646.30678,168.29812 H 485.85492 a 9.0194891,9.048074 0 0 1 0,-18.09614 h 160.45186 a 9.0194891,9.048074 0 1 1 0,18.09614 z"
     fill="#cccccc"
     id="path1012"
     style="stroke-width:1.37581" />
  <path
     d="M 646.30678,202.58551 H 367.17749 a 9.0194801,9.0480649 0 1 1 0,-18.09612 h 279.12929 a 9.0194801,9.0480649 0 1 1 0,18.09612 z"
     fill="#cccccc"
     id="path1014"
     style="stroke-width:1.37581" />
  <path
     d="M 446.92872,133.53447 H 286.47685 a 9.019487,9.0480718 0 0 1 0,-18.09613 h 160.45187 a 9.019487,9.0480718 0 1 1 0,18.09613 z"
     fill="#cccccc"
     id="path1016"
     style="stroke-width:1.37581" />
  <path
     d="M 535.22472,134.01069 H 489.6526 a 9.0194901,9.048075 0 0 1 0,-18.09615 h 45.57212 a 9.0194901,9.048075 0 1 1 0,18.09615 z"
     fill="#cccccc"
     id="path1018"
     style="stroke-width:1.37581" />
  <path
     d="m 332.04899,202.58551 h -45.57214 a 9.019487,9.0480718 0 0 1 0,-18.09612 h 45.57214 a 9.019487,9.0480718 0 1 1 0,18.09612 z"
     fill="#cccccc"
     id="path1020"
     style="stroke-width:1.37581" />
  <path
     d="M 446.92872,489.36966 H 286.47685 a 9.019487,9.0480718 0 0 1 0,-18.09613 h 160.45187 a 9.019487,9.0480718 0 1 1 0,18.09613 z"
     fill="#cccccc"
     id="path1022"
     style="stroke-width:1.37581" />
  <path
     d="M 646.30678,489.36966 H 485.85492 a 9.019487,9.0480718 0 0 1 0,-18.09613 h 160.45186 a 9.019487,9.0480718 0 1 1 0,18.09613 z"
     fill="#cccccc"
     id="path1024"
     style="stroke-width:1.37581;fill:#2b0000" />
  <path
     d="M 646.30678,523.65706 H 367.17749 a 9.0194831,9.0480679 0 1 1 0,-18.09613 h 279.12929 a 9.019487,9.0480718 0 1 1 0,18.09613 z"
     fill="#cccccc"
     id="path1026"
     style="stroke-width:1.37581" />
  <path
     d="M 446.92872,454.60601 H 286.47685 a 9.0194801,9.0480649 0 0 1 0,-18.09612 h 160.45187 a 9.0194801,9.0480649 0 1 1 0,18.09612 z"
     fill="#cccccc"
     id="path1028"
     style="stroke-width:1.37581" />
  <path
     d="M 535.22472,455.08223 H 489.6526 a 9.019487,9.0480718 0 0 1 0,-18.09614 h 45.57212 a 9.019487,9.0480718 0 0 1 0,18.09614 z"
     fill="#cccccc"
     id="path1030"
     style="stroke-width:1.37581" />
  <path
     d="m 332.04899,523.65706 h -45.57214 a 9.0194831,9.0480679 0 0 1 0,-18.09613 h 45.57214 a 9.019487,9.0480718 0 1 1 0,18.09613 z"
     fill="#cccccc"
     id="path1032"
     style="stroke-width:1.37581" />
  <path
     d="m 138.93136,383.47115 a 12.907948,12.948857 0 0 1 -9.09831,-3.73449 L 69.518497,319.98802 a 12.570968,12.610809 0 0 1 0,-17.94606 l 60.070823,-59.50758 a 13.326619,13.368854 0 0 1 18.74125,0.0592 v 0 a 13.30916,13.35134 0 0 1 2.6e-4,18.86012 l -44.63777,44.78002 a 7.4360143,7.4595806 0 0 0 0,10.53683 l 44.39562,44.53684 a 12.936904,12.977905 0 0 1 -9.15732,22.16375 z"
     fill="#6c63ff"
     id="path1034"
     style="fill:#2b0000;stroke-width:1.37581" />
  <path
     d="m 792.4089,384.56618 a 12.936904,12.977905 0 0 1 -9.15731,-22.16375 l 44.39562,-44.53679 a 7.4360143,7.4595806 0 0 0 0,-10.53681 l -44.63777,-44.78009 a 13.29372,13.335851 0 0 1 2.6e-4,-18.86012 v 0 a 13.326592,13.368827 0 0 1 18.74124,-0.0592 l 60.07081,59.50758 a 12.570927,12.610767 0 0 1 0,17.94605 l -60.31453,59.74865 a 12.910682,12.951598 0 0 1 -9.09832,3.73453 z"
     fill="#6c63ff"
     id="path1036"
     style="fill:#280b0b;stroke-width:1.37581" />
</svg>
